<?xml version="1.0" encoding="UTF-8"?>
<svg id="Layer_1" data-name="Layer 1" xmlns="http://www.w3.org/2000/svg" viewBox="0 0 512 384.07">
  <defs>
    <style>
      .cls-1 {
        fill: #fff;
        stroke-width: 0px;
      }
    </style>
  </defs>
  <path class="cls-1" d="M459.5,376.65c9.5,7.9,22.8,9.7,34.1,4.4s18.4-16.6,18.4-29V32.05c0-12.4-7.2-23.7-18.4-29s-24.5-3.6-34.1,4.4l-171.5,142.9v83.4l171.5,142.9ZM256,288.05V32.05c0-12.4-7.2-23.7-18.4-29s-24.5-3.6-34.1,4.4L11.5,167.45c-7.3,6.1-11.5,15.1-11.5,24.6s4.2,18.5,11.5,24.6l192,160c9.5,7.9,22.8,9.7,34.1,4.4s18.4-16.6,18.4-29v-64Z"/>
</svg>