<?xml version="1.0" encoding="UTF-8"?>
<svg id="Layer_1" data-name="Layer 1" xmlns="http://www.w3.org/2000/svg" viewBox="0 0 512 384.07">
  <defs>
    <style>
      .cls-1 {
        fill: #fff;
        stroke-width: 0px;
      }
    </style>
  </defs>
  <path class="cls-1" d="M52.5,376.65c-9.5,7.9-22.8,9.7-34.1,4.4S0,364.45,0,352.05V32.05C0,19.65,7.2,8.35,18.4,3.05,29.6-2.25,42.9-.55,52.5,7.45l171.5,142.9v83.4L52.5,376.65ZM256,288.05V32.05c0-12.4,7.2-23.7,18.4-29s24.5-3.6,34.1,4.4l192,160c7.3,6.1,11.5,15.1,11.5,24.6s-4.2,18.5-11.5,24.6l-192,160c-9.5,7.9-22.8,9.7-34.1,4.4s-18.4-16.6-18.4-29v-64Z"/>
</svg>