<svg width="340" height="164" viewBox="0 0 340 164" fill="none" xmlns="http://www.w3.org/2000/svg">
<path d="M104.064 119.629C104.064 119.629 52.4954 122.004 41.9424 123.945C35.4691 125.141 33.3295 129.112 35.5235 135.477C37.645 141.605 46.6387 149.602 100.854 149.874C130.374 150.019 143.502 148.877 154.272 147.19C160.093 146.284 163.085 143.582 163.592 142.276C163.592 142.276 131.77 134.534 120.238 129.801C108.706 125.069 104.064 119.593 104.064 119.593V119.629Z" fill="white" stroke="#0F0F0F" stroke-width="1.5"/>
<path d="M104.064 116.021C104.064 116.021 52.4959 118.396 41.9428 120.337C35.4696 121.533 33.2937 125.268 34.708 131.869C36.0498 138.106 43.8467 145.831 100.855 146.284C150.791 146.683 171.245 140.88 171.245 140.88C171.245 140.88 131.771 130.962 120.238 126.23C108.706 121.497 104.064 116.021 104.064 116.021V116.021Z" fill="white" stroke="#0F0F0F" stroke-width="1.5"/>
<path d="M40.5288 120.644C40.1843 122.802 39.9849 124.597 39.9486 125.485C39.9486 125.485 39.7492 128.858 40.5832 130.599C41.5443 132.593 45.8779 140.3 100.021 140.717C101.635 140.717 106.186 140.717 107.727 140.717C118.226 140.717 129.305 140.263 137.011 139.828" stroke="#0F0F0F" stroke-width="0.5" stroke-linecap="round" stroke-dasharray="1.5 1.5"/>
<path d="M128.379 136.673C122.794 137.416 114.472 137.616 108.125 137.616H102.867C101.924 137.616 101.09 137.616 100.564 137.616C62.867 137.307 50.8089 133.3 46.983 130.979C46.983 130.979 44.4082 129.456 44.5714 126.084C44.6258 124.814 44.8615 122.475 45.206 119.9" stroke="#0F0F0F" stroke-width="0.5" stroke-linecap="round" stroke-dasharray="1.5 1.5"/>
<path d="M122.741 133.88C118.498 134.171 112.822 134.497 108.307 134.497H103.158C102.251 134.497 101.435 134.497 100.927 134.497C68.2891 134.225 56.1404 131.523 51.7886 129.637C51.7886 129.637 49.3045 128.549 49.4677 126.192C49.5765 124.47 49.8484 121.913 50.193 119.375" stroke="#0F0F0F" stroke-width="0.5" stroke-linecap="round" stroke-dasharray="1.5 1.5"/>
<path d="M117.699 131.288C114.091 131.796 110.555 131.814 108.397 131.814H103.32C102.432 131.814 101.652 131.814 101.144 131.814C75.1789 131.578 62.9214 130.182 57.2822 128.532C57.2822 128.532 53.7464 127.372 54.0547 123.981C54.1635 122.694 54.3448 120.826 54.6712 119.013" stroke="#0F0F0F" stroke-width="0.5" stroke-linecap="round" stroke-dasharray="1.5 1.5"/>
<path d="M112.749 129.221C111.97 129.257 110.465 129.402 109.413 129.402H103.357C102.486 129.402 101.725 129.402 101.235 129.402C80.9633 129.167 68.7603 128.877 62.3051 127.227C62.3051 127.227 57.6451 126.102 58.0984 121.642C58.171 120.898 58.3704 119.593 58.4792 118.777" stroke="#0F0F0F" stroke-width="0.5" stroke-linecap="round" stroke-dasharray="1.5 1.5"/>
<path d="M110.393 127.081L103.358 127.208C103.358 127.208 101.744 127.208 101.273 127.208C80.8013 126.954 70.339 127.026 64.4097 125.304C64.4097 125.304 60.4931 124.615 62.0887 118.432" stroke="#0F0F0F" stroke-width="0.5" stroke-linecap="round" stroke-dasharray="1.5 1.5"/>
<path d="M107.582 124.67C105.697 125.051 95.3792 124.851 95.3792 124.851C80.5832 124.96 73.4391 125.232 67.7999 123.11C67.7999 123.11 65.624 122.24 66.1498 118.251" stroke="#0F0F0F" stroke-width="0.5" stroke-linecap="round" stroke-dasharray="1.5 1.5"/>
<path d="M105.188 122.367C102.704 122.603 96.6661 122.566 96.6661 122.566C84.0459 122.911 73.8193 123.074 70.7368 121.098C70.7368 121.098 69.54 120.173 69.54 117.725" stroke="#0F0F0F" stroke-width="0.5" stroke-linecap="round" stroke-dasharray="1.5 1.5"/>
<path d="M174.667 13.541C174.667 13.541 142.62 19.5935 130.313 27.6143C118.006 35.6352 104.723 48.4576 103.546 75.2981C102.387 101.807 101.982 110.38 101.982 110.38C101.982 110.38 101.669 111.981 101.577 113.452C101.504 114.464 102.313 117.003 102.313 117.003C102.313 117.003 104.815 122.779 115.43 128.887C126.045 134.976 134.544 137.662 134.544 137.662C134.544 137.662 133.9 136.191 133.992 134.976C134.084 133.781 135.188 132.677 135.188 132.677C135.188 132.677 139.309 105.836 140.688 85.9681C142.068 66.1182 142.455 45.8637 152.481 30.521C162.507 15.1783 174.667 13.541 174.667 13.541V13.541Z" fill="white" stroke="#0F0F0F" stroke-width="1.5"/>
<path d="M134.526 137.644C134.526 137.644 133.882 136.172 133.974 134.958C134.066 133.762 135.17 132.659 135.17 132.659C135.17 132.659 139.29 105.818 140.67 85.9498C142.05 66.1 142.436 45.8454 152.462 30.5027C162.488 15.1601 174.649 13.5228 174.649 13.5228C174.649 13.5228 189.182 12.2902 194.241 12.0694C199.318 11.8303 202.777 11.5543 208.995 11.7567C208.995 11.7567 221.891 12.8789 232.506 26.3267C242.348 38.7812 242.421 61.6664 243.12 74.8199C244.426 99.2321 244.224 126.9 244.022 140.569C244.003 142.17 244.482 143.439 244.463 144.616C244.408 147.431 243.856 149.142 243.856 149.142C243.856 149.142 223.123 148.811 188.575 146.732C150.549 144.432 134.507 137.626 134.507 137.626L134.526 137.644Z" fill="white" stroke="#0F0F0F" stroke-width="1.5"/>
<path d="M189.733 25.9033C189.789 27.3015 192.162 28.3133 195.068 28.1845C197.957 28.0557 200.275 26.8232 200.238 25.425C200.183 24.0269 197.809 23.0151 194.903 23.1439C192.015 23.2726 189.697 24.5052 189.733 25.9033ZM193.376 25.3514C193.376 24.9099 194.093 24.5236 195.013 24.4868C195.933 24.45 196.687 24.7627 196.706 25.2043C196.706 25.6458 195.988 26.0321 195.068 26.0873C194.149 26.1241 193.394 25.8113 193.376 25.3698V25.3514Z" stroke="#0F0F0F" stroke-width="0.5"/>
<path d="M128.381 32.4526C128.86 33.2436 130.773 32.9309 132.686 31.7719C134.581 30.6129 135.74 29.0492 135.262 28.2582C134.783 27.4671 132.87 27.7799 130.957 28.9388C129.062 30.0978 127.903 31.6615 128.381 32.4526ZM131.601 29.8587C132.153 29.5275 132.668 29.362 132.741 29.4907C132.815 29.6195 132.428 29.9874 131.877 30.3186C131.325 30.6497 130.81 30.8153 130.736 30.6865C130.662 30.5577 131.049 30.1898 131.601 29.8587Z" stroke="#0F0F0F" stroke-width="0.5"/>
<path d="M237.252 148.921C237.252 148.921 238.043 146.934 238.043 144.947C238.043 142.961 237.252 140.974 237.252 140.974C237.252 140.974 240.214 94.9274 236.663 64.5363C233.407 36.684 227.87 23.7881 216.353 15.7672C210.283 11.536 206.806 11.7936 206.806 11.7936" stroke="#0F0F0F" stroke-width="0.5" stroke-linecap="round" stroke-dasharray="1.5 1.5"/>
<path d="M140.32 139.557C140.32 139.557 139.327 137.571 139.327 136.173C139.327 134.774 139.934 133.192 139.934 133.192C139.934 133.192 142.914 113.49 144.919 89.0039C146.906 64.5181 147.826 51.9717 152.278 39.2413C159.048 19.925 176.764 13.3574 176.764 13.3574" stroke="#0F0F0F" stroke-width="0.5" stroke-linecap="round" stroke-dasharray="1.5 1.5"/>
<path d="M130.166 135.97C130.166 135.97 129.448 134.425 129.448 133.026C129.448 131.628 130.46 130.377 130.46 130.377C130.46 130.377 133.992 110.031 135.74 85.5266C137.543 60.1394 138.922 50.3893 144.901 37.0518C151.855 21.5252 167.455 15.1968 167.455 15.1968" stroke="#0F0F0F" stroke-width="0.5" stroke-linecap="round" stroke-dasharray="1.5 1.5"/>
<path d="M200.992 11.9222C201.581 11.7383 202.041 9.64106 200.937 8.83161C199.815 8.00377 197.295 7.93018 194.737 8.04056C191.978 8.16934 189.292 8.70284 188.446 9.67785C187.784 10.4505 187.931 12.1614 188.372 12.3637C188.832 12.5661 193.45 12.3269 195.013 12.2534C196.577 12.1798 200.974 11.9222 200.974 11.9222H200.992Z" fill="white" stroke="#0F0F0F" stroke-width="1.5"/>
<path fill-rule="evenodd" clip-rule="evenodd" d="M194.369 124.067L203.108 122.32L203.715 123.534C203.715 123.534 198.968 125.171 197.754 125.576C196.264 126.091 194.976 125.907 194.627 124.803C194.461 124.288 193.523 124.233 191.683 124.601L182.338 126.459L181.97 123.295L191.095 122.43C192.806 122.264 193.873 122.54 194.241 123.626L194.388 124.049L194.369 124.067ZM194.976 118.272L201.47 119.045L201.25 118.603C201.084 118.272 200.753 117.96 200.164 117.849L194.369 116.672L194.976 118.291V118.272ZM196.356 121.933L202.611 121.345L202.059 120.241L195.676 120.149L196.356 121.933V121.933ZM191.702 115.973C191.113 114.17 190.175 113.728 188.188 113.14L185.944 112.477C185.245 112.275 184.656 112.661 184.582 113.268C184.582 113.14 184.343 111.999 184.343 111.999L180.572 110.895L181.786 121.584L186.183 121.4L184.822 114.427L187.287 114.943C188.446 115.182 188.814 115.826 189.09 116.837L190.285 121.234H190.708C192.456 121.142 193.118 121.344 193.615 121.712L191.72 115.954L191.702 115.973ZM202.169 118.585C201.783 117.831 201.25 117.205 200.017 116.874L192.346 114.795C192.015 113.857 190.966 112.809 189.347 112.238L179.358 108.78C178.364 108.43 177.518 109.074 177.573 110.141L178.42 128.63C178.456 129.623 179.358 130.138 180.333 129.88C181.271 129.641 189.09 127.323 190.304 126.974C191.978 126.496 192.861 126.459 193.1 127.25C193.468 128.501 194.866 128.685 196.651 127.875C198.251 127.139 204.966 124.03 204.966 124.03L202.169 118.603V118.585Z" fill="#0F0F0F"/>
<path d="M293.527 116.083C293.527 116.083 303.535 115.237 303.884 115.403C304.362 115.624 304.326 116.175 304.326 116.175L304.822 133.155C304.822 133.155 304.859 133.652 304.712 133.873C304.583 134.075 304.105 134.167 304.105 134.167L294.943 135.345L293.527 116.065V116.083Z" fill="white" stroke="#0F0F0F" stroke-width="0.75"/>
<path d="M305.116 116.911L294.851 117.941L294.538 115.954L305.024 115.035L305.116 116.911Z" fill="white" stroke="#0F0F0F" stroke-width="0.75"/>
<path d="M305.705 133.946L295.477 135.271L295.09 133.302L305.558 132.07L305.705 133.946Z" fill="white" stroke="#0F0F0F" stroke-width="0.75"/>
<path d="M209.657 11.8488C209.252 11.7936 209.031 11.7568 209.031 11.7568C209.031 11.7568 209.252 11.7936 209.657 11.8488Z" fill="#0F0F0F" stroke="#0F0F0F" stroke-width="0.33"/>
<path d="M298.218 138.141C298.107 136.706 297.758 135.749 297.702 134.461C296.304 114.575 295.476 97.098 295.642 79.4742C295.679 74.967 295.992 70.4047 296.948 67.1853C293.471 50.1686 279.196 31.6985 259.474 24.1559C238.024 15.9511 213.796 12.4189 209.657 11.8486C212.361 12.2718 223.307 14.6449 232.542 26.3267C242.384 38.7811 242.458 61.6664 243.157 74.8199C244.518 100.152 244.261 127.471 244.04 140.551C244.021 141.986 244.518 143.531 244.481 144.782C244.426 147.412 243.874 149.179 243.874 149.179C243.874 149.179 266.741 149.583 282.489 145.407C282.489 145.407 292.496 143.696 298.126 139.962C298.199 139.465 298.254 138.913 298.218 138.159V138.141Z" fill="white" stroke="#0F0F0F" stroke-width="1.5"/>
<path d="M296.359 141.415C296.359 141.415 296.654 140.164 296.543 138.287C296.488 137.22 296.083 136.006 296.01 134.535C295.642 127.636 294.98 116.892 294.796 110.49C294.464 99.0661 294.281 85.0847 294.796 73.8813C295.145 66.3203 296.525 65.6948 296.525 65.6948" stroke="#0F0F0F" stroke-width="0.5" stroke-linecap="round" stroke-dasharray="1.5 1.5"/>
<path d="M293.177 142.74C293.177 142.74 293.417 141.029 293.361 139.208C293.306 137.478 292.699 136.448 292.625 135.326C292.166 128.17 291.558 117.187 291.374 110.343C291.062 98.8457 290.344 87.771 291.08 76.8618C291.982 63.7267 295.054 60.4521 295.054 60.4521" stroke="#0F0F0F" stroke-width="0.5" stroke-linecap="round" stroke-dasharray="1.5 1.5"/>
<path d="M304.013 121.657L299.947 122.136L300.186 127.176L304.27 126.735L304.013 121.657Z" fill="white" stroke="#0F0F0F" stroke-width="0.4"/>
<path d="M305.135 121.51L301.069 121.989L301.308 127.029L305.392 126.588L305.135 121.51Z" fill="white" stroke="#0F0F0F" stroke-width="0.4"/>
<path d="M304.619 124.122C304.675 124.895 304.362 125.539 303.939 125.557C303.516 125.575 303.129 124.987 303.074 124.214C303.019 123.442 303.332 122.798 303.755 122.779C304.178 122.761 304.564 123.35 304.619 124.122Z" fill="white" stroke="#0F0F0F" stroke-width="0.4"/>
<path d="M297.445 134.038C295.918 134.921 293.766 135.952 290.694 137.037C271.451 143.825 219.297 140.937 184.38 139.226C152.849 137.681 126.578 132.364 112.137 121.345C102.773 114.189 101.909 110.104 101.909 110.104" stroke="#0F0F0F" stroke-width="0.5" stroke-linecap="round" stroke-dasharray="1.5 1.5"/>
<path d="M249.486 148.921C249.486 148.921 250.277 146.934 250.277 144.947C250.277 142.961 249.486 140.974 249.486 140.974C249.486 140.974 251.215 96.6933 248.51 67.6636C245.861 39.3514 241.538 26.4187 228.311 18.5634C221.946 14.7737 218.156 13.7803 218.156 13.7803" stroke="#0F0F0F" stroke-width="0.5" stroke-linecap="round" stroke-dasharray="1.5 1.5"/>
<path d="M261.48 32.9864C263.853 34.127 266.079 34.1638 266.447 33.0784C266.815 31.9746 265.178 30.1534 262.786 29.0128C260.413 27.8722 258.187 27.8354 257.819 28.9208C257.451 30.0246 259.089 31.8458 261.48 32.9864ZM260.928 29.8038C261.02 29.5095 261.756 29.5647 262.547 29.951C263.338 30.3373 263.908 30.8892 263.816 31.202C263.724 31.5147 262.989 31.4411 262.198 31.0548C261.407 30.6685 260.836 30.1166 260.928 29.8038Z" stroke="#0F0F0F" stroke-width="0.5"/>
</svg>
